#!OML:ASF F:\VICON\USERDATA\INSTALL\rory3\rory3.ASF
:FULLY-SPECIFIED
:DEGREES
1016
root -1.04527 17.7741 -2.45674 -2.81587 -32.5049 3.09431
lowerback 8.61444 -2.29314 -6.42584
upperback 3.03325 -3.56035 2.37401
thorax -1.11412 -1.84699 6.42
lowerneck -20.9559 -6.68891 -11.3889
upperneck 23.7733 -9.09726 11.6675
head 12.4617 -3.69169 4.77465
rclavicle -4.17448e-014 2.38542e-015
rhumerus 43.9291 -19.7282 -27.6876
rradius 59.1528
rwrist 16.2539
rhand -45.8413 -2.67686
rfingers 7.12502
rthumb -18.5931 -31.8083
lclavicle -4.17448e-014 2.38542e-015
lhumerus 26.5302 14.518 36.8718
lradius 55.8802
lwrist 8.58831
lhand -22.2117 26.7943
lfingers 7.12502
lthumb 4.20431 56.7325
rfemur -31.8764 0.633711 6.69298
rtibia 25.952
rfoot 4.69385 -17.8767
rtoes 8.07808
lfemur -2.79482 2.38972 -22.5851
ltibia 21.8638
lfoot -13.9705 7.61796
ltoes -8.92163
1017
root -1.10575 17.7695 -2.42745 -2.6595 -32.2579 3.12453
lowerback 8.73285 -2.15386 -6.54806
upperback 2.85186 -3.39287 2.39001
thorax -1.38658 -1.74608 6.50721
lowerneck -20.7581 -6.81685 -11.1742
upperneck 23.8472 -9.33657 11.4939
head 12.4627 -3.80586 4.62901
rclavicle -1.0148e-013 8.74653e-015
rhumerus 42.1477 -17.6974 -27.1479
rradius 59.3738
rwrist 16.1547
rhand -45.2398 -2.59666
rfingers 7.12502
rthumb -18.0144 -31.7824
lclavicle -1.0148e-013 8.74653e-015
lhumerus 25.8309 12.498 38.3582
lradius 56.5065
lwrist 7.81688
lhand -21.4166 27.2137
lfingers 7.12502
lthumb 4.9721 57.1354
rfemur -31.6671 0.893972 6.5875
rtibia 25.8944
rfoot 4.99847 -17.9949
rtoes 7.83282
lfemur -2.77105 2.33273 -22.4735
ltibia 21.8073
lfoot -13.981 7.49117
ltoes -8.72667
1018
root -1.16639 17.7647 -2.40161 -2.52073 -31.9726 3.2655
lowerback 8.7459 -2.26868 -6.84577
upperback 2.79686 -3.57103 2.44708
thorax -1.39891 -1.83441 6.75423
lowerneck -20.8148 -6.80495 -11.233
upperneck 23.7955 -9.30677 11.5621
head 12.457 -3.78781 4.66923
rclavicle -7.77248e-014 -8.74653e-015
rhumerus 41.4241 -15.4952 -27.1981
rradius 59.3346
rwrist 16.0508
rhand -44.6813 -2.2544
rfingers 7.12502
rthumb -17.4769 -31.4888
lclavicle -7.77248e-014 -8.74653e-015
lhumerus 24.2419 10.9782 39.4074
lradius 57.0799
lwrist 7.2701
lhand -21.2172 26.8286
lfingers 7.12502
lthumb 5.16462 56.7457
rfemur -31.489 1.14206 6.38444
rtibia 25.797
rfoot 5.19632 -18.1744
rtoes 8.03953
lfemur -2.818 2.29617 -22.4658
ltibia 21.7602
lfoot -13.8977 7.40463
ltoes -9.3061
1019
root -1.22818 17.7607 -2.37364 -2.27044 -31.7572 3.26877
lowerback 8.32606 -2.35632 -6.57055
upperback 2.9525 -3.63912 2.27068
thorax -1.02395 -1.88639 6.38418
lowerneck -20.824 -6.88012 -11.4123
upperneck 23.5381 -9.47303 12.0607
head 12.4237 -3.81878 4.85702
rclavicle -3.12092e-014 1.90833e-014
rhumerus 40.5351 -13.6501 -27.5957
rradius 59.1845
rwrist 16.2132
rhand -44.1849 -1.60161
rfingers 7.12502
rthumb -16.9991 -30.8778
lclavicle -3.12092e-014 1.90833e-014
lhumerus 23.1571 9.44042 40.3009
lradius 57.6383
lwrist 6.76701
lhand -21.1489 26.5854
lfingers 7.12502
lthumb 5.23056 56.5009
rfemur -31.3398 1.34831 6.35536
rtibia 25.6414
rfoot 5.76012 -18.3782
rtoes 8.22643
lfemur -2.91612 2.21208 -22.3362
ltibia 21.7836
lfoot -13.8574 7.43153
ltoes -10.2718
1020
root -1.29282 17.7519 -2.34091 -1.97123 -31.5774 3.24284
lowerback 8.18811 -2.2731 -6.54675
upperback 2.86835 -3.51719 2.32811
thorax -1.05245 -1.82127 6.41757
lowerneck -20.4688 -7.01933 -11.8183
upperneck 23.1828 -9.64944 12.4535
head 12.2881 -3.90184 5.04063
rclavicle -5.57591e-014 1.74931e-014
rhumerus 39.2149 -11.622 -27.501
rradius 59.1624
rwrist 16.2818
rhand -43.4566 -0.470979
rfingers 7.12502
rthumb -16.298 -29.8061
lclavicle -5.57591e-014 1.74931e-014
lhumerus 21.9099 7.47754 41.5926
lradius 58.3556
lwrist 6.4426
lhand -20.8066 26.919
lfingers 7.12502
lthumb 5.56106 56.826
rfemur -31.1809 1.5325 6.40054
rtibia 25.4529
rfoot 6.59643 -18.6734
rtoes 7.75644
lfemur -3.04912 2.13047 -22.1781
ltibia 21.8435
lfoot -13.9602 7.45923
ltoes -11.3397
1021
root -1.35792 17.7412 -2.30849 -1.73229 -31.3744 3.25426
lowerback 8.08802 -2.3299 -6.57884
upperback 2.88485 -3.58817 2.35975
thorax -0.964207 -1.86136 6.46763
lowerneck -20.3729 -7.04686 -12.2407
upperneck 22.8027 -9.68544 13.0456
head 12.1899 -3.8916 5.32814
rclavicle 9.79014e-014 -2.38542e-015
rhumerus 38.3856 -9.60524 -27.9566
rradius 59.1093
rwrist 16.3752
rhand -42.4295 0.76144
rfingers 7.12502
rthumb -15.3089 -28.6519
lclavicle 9.79014e-014 -2.38542e-015
lhumerus 20.4043 5.73377 42.6377
lradius 59.2798
lwrist 6.45588
lhand -20.4705 27.7217
lfingers 7.12502
lthumb 5.88557 57.6199
rfemur -30.96 1.81841 6.39431
rtibia 25.2709
rfoot 7.29603 -19.0243
rtoes 8.02379
lfemur -3.15064 2.07076 -22.0566
ltibia 21.9081
lfoot -14.0631 7.43635
ltoes -12.3727
1022
root -1.42241 17.7347 -2.2747 -1.52568 -31.221 3.30661
lowerback 8.01235 -2.45572 -6.61125
upperback 2.88818 -3.75285 2.38527
thorax -0.888392 -1.94749 6.5193
lowerneck -20.4129 -7.00278 -12.5641
upperneck 22.5983 -9.60172 13.4541
head 12.1508 -3.83486 5.55358
rclavicle 4.3832e-014 -9.54166e-015
rhumerus 37.7048 -7.48337 -28.7125
rradius 59.1364
rwrist 16.6684
rhand -41.4344 1.56366
rfingers 7.12502
rthumb -14.3502 -27.9204
lclavicle 4.3832e-014 -9.54166e-015
lhumerus 18.5933 4.12469 43.7398
lradius 60.0868
lwrist 6.50706
lhand -20.5676 28.5792
lfingers 7.12502
lthumb 5.79184 58.48
rfemur -30.74 1.99897 6.40616
rtibia 25.1113
rfoot 7.81597 -18.8687
rtoes 8.60189
lfemur -3.22691 1.92915 -21.9843
ltibia 21.9783
lfoot -14.214 7.482
ltoes -12.7989
1023
root -1.48867 17.7283 -2.24186 -1.35459 -31.0307 3.40692
lowerback 8.00927 -2.50101 -6.60623
upperback 2.88201 -3.81274 2.34707
thorax -0.886648 -1.97677 6.47998
lowerneck -20.567 -7.03091 -12.4805
upperneck 22.4824 -9.60117 13.3424
head 12.1245 -3.83364 5.48865
rclavicle -1.21358e-013 2.22639e-014
rhumerus 36.6374 -5.49142 -29.4103
rradius 59.2534
rwrist 17.0001
rhand -40.4706 2.19248
rfingers 7.12502
rthumb -13.4214 -27.3552
lclavicle -1.21358e-013 2.22639e-014
lhumerus 16.9062 2.34439 45.0067
lradius 60.583
lwrist 6.37742
lhand -20.7951 28.9651
lfingers 7.12502
lthumb 5.5722 58.8719
rfemur -30.4881 2.08002 6.42825
rtibia 24.9582
rfoot 8.15817 -18.3024
rtoes 9.33914
lfemur -3.28316 1.70306 -21.9432
ltibia 22.0443
lfoot -14.4413 7.52843
ltoes -12.724
1024
root -1.5577 17.7197 -2.20993 -1.18295 -30.869 3.49662
lowerback 8.13657 -2.46281 -6.64006
upperback 2.82496 -3.77302 2.31734
thorax -1.02278 -1.94903 6.47533
lowerneck -20.7572 -7.11127 -12.2803
upperneck 22.4122 -9.68655 13.1247
head 12.1229 -3.87125 5.34706
rclavicle -1.81888e-014 2.94201e-014
rhumerus 35.4001 -3.51878 -30.0516
rradius 59.3002
rwrist 17.3338
rhand -39.6924 2.59251
rfingers 7.12502
rthumb -12.6712 -27.0031
lclavicle -1.81888e-014 2.94201e-014
lhumerus 15.189 0.469238 46.558
lradius 61.1227
lwrist 5.97984
lhand -20.8156 29.3003
lfingers 7.12502
lthumb 5.55242 59.2076
rfemur -30.2333 2.25211 6.47316
rtibia 24.8375
rfoot 8.38521 -17.4132
rtoes 11.6613
lfemur -3.33324 1.51937 -21.8734
ltibia 22.1057
lfoot -14.6818 7.56221
ltoes -12.3533
1025
root -1.62882 17.7087 -2.17533 -0.888963 -30.7194 3.52445
lowerback 8.35014 -2.37166 -6.66026
upperback 2.61876 -3.66833 2.31647
thorax -1.37182 -1.87472 6.49966
lowerneck -20.726 -7.20612 -12.1617
upperneck 22.2672 -9.83814 13.09
head 12.0754 -3.9342 5.2794
rclavicle -4.11484e-014 3.97569e-015
rhumerus 34.0224 -1.54314 -30.786
rradius 59.1868
rwrist 17.7497
rhand -38.8154 3.09231
rfingers 7.12502
rthumb -11.8257 -26.5538
lclavicle -4.11484e-014 3.97569e-015
lhumerus 13.3772 -1.51215 48.3173
lradius 61.6245
lwrist 5.42939
lhand -20.6937 29.0766
lfingers 7.12502
lthumb 5.67007 58.9807
rfemur -30.0885 2.29128 6.65248
rtibia 24.7855
rfoot 8.79527 -15.8373
rtoes 14.8585
lfemur -3.46746 1.23858 -21.7514
ltibia 22.1649
lfoot -14.8849 7.63961
ltoes -11.6526
1026
root -1.70246 17.6969 -2.14409 -0.549248 -30.5513 3.60674
lowerback 8.13958 -2.24368 -6.51328
upperback 2.72494 -3.47509 2.08329
thorax -1.2004 -1.78578 6.13909
lowerneck -20.9281 -7.38987 -11.8062
upperneck 21.8374 -10.1932 13.2601
head 11.9965 -4.03706 5.20048
rclavicle 2.00773e-014 -2.38542e-015
rhumerus 32.514 -0.178659 -31.8193
rradius 59.0772
rwrist 18.1145
rhand -38.0965 3.42404
rfingers 7.12502
rthumb -11.1323 -26.2607
lclavicle 2.00773e-014 -2.38542e-015
lhumerus 12.6375 -3.6227 49.504
lradius 61.7139
lwrist 5.33886
lhand -20.1357 28.6192
lfingers 7.12502
lthumb 6.20879 58.5082
rfemur -30.0215 2.35544 6.79138
rtibia 24.7729
rfoot 8.67867 -14.027
rtoes 17.5957
lfemur -3.71001 1.08831 -21.6664
ltibia 22.2635
lfoot -15.0565 7.69898
ltoes -11.8729
1027
root -1.77654 17.6865 -2.11447 -0.293263 -30.4779 3.75993
lowerback 7.9262 -2.15127 -6.46481
upperback 2.94713 -3.33572 1.83184
thorax -0.891034 -1.73293 5.81717
lowerneck -21.328 -7.51277 -11.3946
upperneck 21.4276 -10.4629 13.4399
head 11.9483 -4.08964 5.12993
rclavicle -5.20816e-014 1.94809e-014
rhumerus 31.1972 1.19026 -33.0541
rradius 59.0348
rwrist 18.3762
rhand -37.7887 3.29902
rfingers 7.12502
rthumb -10.8355 -26.4015
lclavicle -5.20816e-014 1.94809e-014
lhumerus 11.8575 -5.39053 50.655
lradius 61.8211
lwrist 5.17451
lhand -19.5441 28.5479
lfingers 7.12502
lthumb 6.77994 58.4193
rfemur -29.9175 2.67741 6.80614
rtibia 24.7775
rfoot 7.59945 -12.7267
rtoes 17.6387
lfemur -3.91352 1.08669 -21.6321
ltibia 22.4002
lfoot -15.2712 7.69637
ltoes -12.3462
1028
root -1.85191 17.674 -2.08364 0.00391648 -30.4995 3.85724
lowerback 7.84617 -2.12837 -6.49137
upperback 3.06064 -3.30205 1.7095
thorax -0.739465 -1.72458 5.69316
lowerneck -21.6608 -7.55 -11.3062
upperneck 21.0793 -10.5645 13.7883
head 11.9168 -4.07811 5.21529
rclavicle 6.13251e-014 2.3059e-014
rhumerus 30.1773 2.77293 -34.5104
rradius 58.8272
rwrist 18.8342
rhand -37.4145 3.26446
rfingers 7.12502
rthumb -10.4745 -26.4546
lclavicle 6.13251e-014 2.3059e-014
lhumerus 10.2071 -6.44891 52.4387
lradius 62.0734
lwrist 4.65495
lhand -19.1876 28.3698
lfingers 7.12502
lthumb 7.12405 58.2299
rfemur -29.8534 3.07916 6.88096
rtibia 24.7814
rfoot 5.81911 -12.3425
rtoes 15.0555
lfemur -4.10515 1.02871 -21.5563
ltibia 22.5261
lfoot -15.4546 7.85467
ltoes -12.9146
